<?xml version="1.0" encoding="utf-8"?>
<!-- Generator: Adobe Illustrator 26.1.0, SVG Export Plug-In . SVG Version: 6.00 Build 0)  -->
<svg version="1.1" id="图层_1" xmlns="http://www.w3.org/2000/svg" xmlns:xlink="http://www.w3.org/1999/xlink" x="0px" y="0px"
	 viewBox="0 0 117 116" style="enable-background:new 0 0 117 116;" xml:space="preserve">
<g transform="translate(0.000000,116.000000) scale(0.100000,-0.100000)">
	<path d="M567.1,983.1c-4.3-12.8-8.5-67-8.5-121.1c0-105.4-10-116.8-68.4-75.5c-27.1,18.5-31.3,34.2-31.3,106.9
		c0,45.6-5.7,84.1-12.8,84.1c-34.2,0-41.3-136.8-8.5-198.1c14.2-28.5,35.6-44.2,71.2-49.9c29.9-5.7,49.9-18.5,49.9-29.9
		c0-15.7-18.5-21.4-74.1-21.4c-86.9,0-139.6-11.4-139.6-29.9c0-7.1,48.4-12.8,106.9-12.8c94,0,106.9-2.8,106.9-25.6
		c0-14.2-19.9-44.2-44.2-68.4c-62.7-58.4-85.5-119.7-94-263.6C413.2,166.7,414.7,151,436,151c18.5,0,22.8,15.7,22.8,85.5
		c0,125.4,25.6,226.6,68.4,266.4c47,42.7,151,47,173.8,4.3c10-19.9,10-31.3-2.8-41.3c-108.3-88.3-104-81.2-102.6-155.3
		c0-41.3,11.4-86.9,24.2-108.3c29.9-44.2,122.5-94,173.8-94c58.4,0,35.6,28.5-42.7,55.6c-55.6,18.5-76.9,35.6-95.5,72.7
		C617,312,622.7,347.7,685.4,406.1c29.9,28.5,58.4,62.7,62.7,76.9c14.2,37-49.9,95.5-104,95.5c-32.8,0-42.7,5.7-42.7,28.5
		c0,25.6,10,28.5,106.9,28.5c85.5,0,106.9,4.3,106.9,21.4s-21.4,21.4-106.9,21.4H601.3V721c0,35.6,5.7,42.7,34.2,42.7
		c18.5,0,49.9,12.8,71.2,29.9c32.8,25.6,37,39.9,37,115.4c0,61.3-4.3,82.6-17.1,78.4c-11.4-2.8-17.1-27.1-14.2-64.1
		c5.7-79.8-15.7-116.8-68.4-116.8h-42.7v91.2C601.3,987.4,584.2,1028.7,567.1,983.1z"/>
</g>
</svg>
